<svg aria-hidden="true" style="position: absolute; width: 0; height: 0; overflow: hidden;" version="1.1" xmlns="http://www.w3.org/2000/svg" xmlns:xlink="http://www.w3.org/1999/xlink">
<defs>
<symbol id="icon-search" viewBox="0 0 32 32">
<path d="M31.715 28.953c0.381 0.381 0.381 0.999 0 1.381l-1.381 1.381c-0.382 0.381-1 0.381-1.381 0l-9.668-9.668c-0.105-0.105-0.175-0.229-0.222-0.361-1.983 1.449-4.418 2.314-7.063 2.314-6.627 0-12-5.373-12-12s5.373-12 12-12c6.627 0 12 5.373 12 12 0 2.645-0.865 5.080-2.314 7.063 0.132 0.047 0.256 0.116 0.361 0.222l9.668 9.668zM12 4c-4.418 0-8 3.582-8 8s3.582 8 8 8 8-3.582 8-8c0-4.418-3.582-8-8-8z"></path>
</symbol>
<symbol id="icon-notification" viewBox="0 0 20 20">
<path d="M4 8c0-0.001 0-0.002 0-0.003 0-2.608 1.664-4.827 3.988-5.654l0.042-0.013c-0.016-0.095-0.025-0.204-0.025-0.315 0-1.105 0.895-2 2-2s2 0.895 2 2c0 0.111-0.009 0.22-0.027 0.327l0.002-0.012c2.361 0.843 4.020 3.060 4.020 5.664 0 0.002 0 0.004 0 0.006v-0 6l3 2v1h-18v-1l3-2v-6zM12 18c0 1.105-0.895 2-2 2s-2-0.895-2-2v0h4z"></path>
</symbol>
<symbol id="icon-bookmarks" viewBox="0 0 32 32">
<path d="M8 4v28l10-10 10 10v-28zM24 0h-20v28l2-2v-24h18z"></path>
</symbol>
<symbol id="icon-user" viewBox="0 0 24 24">
<path d="M17 9c0-1.381-0.56-2.631-1.464-3.535s-2.155-1.465-3.536-1.465-2.631 0.56-3.536 1.465c-0.904 0.904-1.464 2.154-1.464 3.535s0.56 2.631 1.464 3.535c0.905 0.905 2.155 1.465 3.536 1.465s2.631-0.56 3.536-1.465c0.904-0.904 1.464-2.154 1.464-3.535z"></path>
<path d="M6 19c0 1 2.25 2 6 2 3.518 0 6-1 6-2 0-2-2.354-4-6-4-3.75 0-6 2-6 4z"></path>
</symbol>
<symbol id="icon-home" viewBox="0 0 32 32">
<path d="M32 18.451l-16-12.42-16 12.42v-5.064l16-12.42 16 12.42zM28 18v12h-8v-8h-8v8h-8v-12l12-9z"></path>
</symbol>
<symbol id="icon-pen" viewBox="0 0 32 32">
<path d="M31.818 9.122l-8.939-8.939c-0.292-0.292-0.676-0.226-0.855 0.146l-1.199 2.497 8.35 8.35 2.497-1.199c0.372-0.178 0.438-0.563 0.146-0.855z"></path>
<path d="M19.231 4.231l-8.231 0.686c-0.547 0.068-1.002 0.184-1.159 0.899-0 0.001-0 0.001-0.001 0.002-2.232 10.721-9.84 21.183-9.84 21.183l1.793 1.793 8.5-8.5c-0.187-0.392-0.293-0.83-0.293-1.293 0-1.657 1.343-3 3-3s3 1.343 3 3-1.343 3-3 3c-0.463 0-0.902-0.105-1.293-0.293l-8.5 8.5 1.793 1.793c0 0 10.462-7.608 21.183-9.84 0.001-0 0.001-0 0.002-0.001 0.714-0.157 0.831-0.612 0.898-1.159l0.686-8.231-8.538-8.539z"></path>
</symbol>
<symbol id="icon-blogger" viewBox="0 0 32 32">
<path d="M29.931 12h-1.794c-1.099 0-2.062-0.929-2.137-2v0c0-5.708-4.602-10-10.35-10h-5.245c-5.744 0-10.402 4.625-10.406 10.333v11.337c0 5.708 4.662 10.329 10.406 10.329h11.201c5.748 0 10.394-4.621 10.394-10.329v-7.324c0-1.141-0.92-2.346-2.069-2.346zM10 8h6c1.1 0 2 0.9 2 2s-0.9 2-2 2h-6c-1.1 0-2-0.9-2-2s0.9-2 2-2zM22 24h-12c-1.1 0-2-0.9-2-2s0.9-2 2-2h12c1.1 0 2 0.9 2 2s-0.9 2-2 2z"></path>
</symbol>
<symbol id="icon-bold" viewBox="0 0 22 28">
<path d="M8.672 23.766c0.688 0.297 1.437 0.5 2.188 0.5 3.563 0 5.875-1.422 5.875-5.234 0-0.969-0.125-1.984-0.641-2.812-1.453-2.344-3.547-2.469-6.062-2.469-0.469 0-1.141 0-1.578 0.156 0 1.656-0.016 3.313-0.016 4.953 0 1.078-0.141 4 0.234 4.906zM8.453 12.109c0.562 0.094 1.141 0.109 1.703 0.109 3.219 0 5.516-0.906 5.516-4.516 0-3.047-2.703-4.094-5.313-4.094-0.688 0-1.359 0.094-2.031 0.203 0 1.578 0.125 3.156 0.125 4.734 0 0.828-0.016 1.656-0.016 2.484 0 0.359 0 0.719 0.016 1.078zM0 26l0.031-1.469c1-0.25 2.016-0.266 2.984-0.672 0.547-0.922 0.469-2.547 0.469-3.594 0-0.344 0.031-15.281-0.344-16.016-0.234-0.453-2.531-0.562-3.047-0.625l-0.063-1.297c3.719-0.063 7.438-0.328 11.141-0.328 0.703 0 1.422 0.016 2.125 0.016 3.531 0 7.422 1.687 7.422 5.75 0 2.797-2.125 3.844-4.328 4.844 2.969 0.672 5.609 2.688 5.609 5.969 0 5.375-4.891 7.156-9.469 7.156-1.375 0-2.75-0.094-4.125-0.094-2.797 0-5.625 0.25-8.406 0.359z"></path>
</symbol>
<symbol id="icon-italic" viewBox="0 0 32 32">
<path d="M28 2v2h-4l-10 24h4v2h-14v-2h4l10-24h-4v-2z"></path>
</symbol>
<symbol id="icon-underline" viewBox="0 0 32 32">
<path d="M22 2h4v13c0 4.971-4.477 9-10 9s-10-4.029-10-9v-13h4v13c0 1.255 0.57 2.459 1.605 3.391 1.153 1.038 2.714 1.609 4.395 1.609s3.242-0.572 4.395-1.609c1.035-0.931 1.605-2.136 1.605-3.391v-13zM6 26h20v4h-20z"></path>
</symbol>
<symbol id="icon-paragraph-left" viewBox="0 0 32 32">
<path d="M0 2h32v4h-32zM0 8h20v4h-20zM0 20h20v4h-20zM0 14h32v4h-32zM0 26h32v4h-32z"></path>
</symbol>
<symbol id="icon-paragraph-center" viewBox="0 0 32 32">
<path d="M0 2h32v4h-32zM6 8h20v4h-20zM6 20h20v4h-20zM0 14h32v4h-32zM0 26h32v4h-32z"></path>
</symbol>
<symbol id="icon-paragraph-right" viewBox="0 0 32 32">
<path d="M0 2h32v4h-32zM12 8h20v4h-20zM12 20h20v4h-20zM0 14h32v4h-32zM0 26h32v4h-32z"></path>
</symbol>
<symbol id="icon-paragraph-justify" viewBox="0 0 32 32">
<path d="M0 2h32v4h-32zM0 8h32v4h-32zM0 14h32v4h-32zM0 20h32v4h-32zM0 26h32v4h-32z"></path>
</symbol>
<symbol id="icon-cheveron-right" viewBox="0 0 20 20">
<path d="M12.95 10.707l0.707-0.707-5.657-5.657-1.414 1.414 4.242 4.243-4.242 4.243 1.414 1.414 4.95-4.95z"></path>
</symbol>
<symbol id="icon-cheveron-left" viewBox="0 0 20 20">
<path d="M7.050 9.293l-0.707 0.707 5.657 5.657 1.414-1.414-4.242-4.243 4.242-4.243-1.414-1.414z"></path>
</symbol>
</defs>
</svg>
